<svg width="27" height="27" viewBox="0 0 27 27" fill="none" xmlns="http://www.w3.org/2000/svg">
<path d="M0 2.6365C0 2.40922 0.0902886 2.19125 0.251003 2.03054C0.411717 1.86983 0.629693 1.77954 0.856977 1.77954H1.60769C2.85373 1.77954 3.57017 2.59022 3.98495 3.39919C4.26775 3.95279 4.47171 4.62807 4.64139 5.21423H22.2866C22.5514 5.21431 22.8126 5.27576 23.0497 5.39376C23.2868 5.51175 23.4933 5.68308 23.6531 5.89431C23.8128 6.10553 23.9214 6.3509 23.9704 6.61116C24.0194 6.87142 24.0074 7.13949 23.9354 7.39434L21.3713 16.4353C21.1673 17.1525 20.735 17.7838 20.1399 18.2332C19.5448 18.6826 18.8194 18.9257 18.0737 18.9256H9.36848C8.61652 18.9258 7.88535 18.6788 7.2876 18.2226C6.68984 17.7664 6.25868 17.1263 6.06054 16.401L4.96019 12.3647L4.94305 12.3099L3.17767 6.31457L3.00628 5.73698C2.83488 5.14396 2.68405 4.6195 2.45781 4.17903C2.18529 3.64771 1.93505 3.49346 1.60769 3.49346H0.856977C0.629693 3.49346 0.411717 3.40317 0.251003 3.24246C0.0902886 3.08175 0 2.86378 0 2.6365ZM6.5953 11.8471L7.71451 15.9536C7.81374 16.3162 8.02939 16.636 8.32825 16.864C8.62711 17.0919 8.99261 17.2153 9.36848 17.2151H18.0754C18.4481 17.2147 18.8105 17.0929 19.1077 16.868C19.4049 16.6432 19.6207 16.3276 19.7225 15.9691L22.2866 6.92815H5.14701L6.5953 11.8471ZM12.0028 23.2087C12.0028 23.8905 11.732 24.5444 11.2498 25.0265C10.7677 25.5087 10.1137 25.7795 9.43189 25.7795C8.75004 25.7795 8.09611 25.5087 7.61397 25.0265C7.13183 24.5444 6.86096 23.8905 6.86096 23.2087C6.86096 22.5268 7.13183 21.8729 7.61397 21.3908C8.09611 20.9086 8.75004 20.6378 9.43189 20.6378C10.1137 20.6378 10.7677 20.9086 11.2498 21.3908C11.732 21.8729 12.0028 22.5268 12.0028 23.2087ZM10.2889 23.2087C10.2889 22.9814 10.1986 22.7634 10.0379 22.6027C9.87715 22.442 9.65918 22.3517 9.43189 22.3517C9.20461 22.3517 8.98663 22.442 8.82592 22.6027C8.6652 22.7634 8.57492 22.9814 8.57492 23.2087C8.57492 23.4359 8.6652 23.6539 8.82592 23.8146C8.98663 23.9753 9.20461 24.0656 9.43189 24.0656C9.65918 24.0656 9.87715 23.9753 10.0379 23.8146C10.1986 23.6539 10.2889 23.4359 10.2889 23.2087ZM20.5726 23.2087C20.5726 23.8905 20.3017 24.5444 19.8196 25.0265C19.3374 25.5087 18.6835 25.7795 18.0017 25.7795C17.3198 25.7795 16.6659 25.5087 16.1837 25.0265C15.7016 24.5444 15.4307 23.8905 15.4307 23.2087C15.4307 22.5268 15.7016 21.8729 16.1837 21.3908C16.6659 20.9086 17.3198 20.6378 18.0017 20.6378C18.6835 20.6378 19.3374 20.9086 19.8196 21.3908C20.3017 21.8729 20.5726 22.5268 20.5726 23.2087ZM18.8586 23.2087C18.8586 22.9814 18.7684 22.7634 18.6076 22.6027C18.4469 22.442 18.229 22.3517 18.0017 22.3517C17.7744 22.3517 17.5564 22.442 17.3957 22.6027C17.235 22.7634 17.1447 22.9814 17.1447 23.2087C17.1447 23.4359 17.235 23.6539 17.3957 23.8146C17.5564 23.9753 17.7744 24.0656 18.0017 24.0656C18.229 24.0656 18.4469 23.9753 18.6076 23.8146C18.7684 23.6539 18.8586 23.4359 18.8586 23.2087Z" fill="#56A033"/>
</svg>
