<svg width="20" height="20" viewBox="0 0 20 20" fill="none" xmlns="http://www.w3.org/2000/svg">
<path d="M0 1.6C0 0.716344 0.746192 0 1.66667 0H7.5C8.42048 0 9.16667 0.716344 9.16667 1.6V7.2C9.16667 8.08366 8.42048 8.8 7.5 8.8H1.66667C0.746192 8.8 0 8.08366 0 7.2V1.6Z" fill="#56A033"/>
<path d="M0 12.8C0 11.9163 0.746192 11.2 1.66667 11.2H7.5C8.42048 11.2 9.16667 11.9163 9.16667 12.8V18.4C9.16667 19.2837 8.42048 20 7.5 20H1.66667C0.746192 20 0 19.2837 0 18.4V12.8Z" fill="#56A033"/>
<path d="M10.8333 1.6C10.8333 0.716344 11.5795 0 12.5 0H18.3333C19.2538 0 20 0.716344 20 1.6V7.2C20 8.08366 19.2538 8.8 18.3333 8.8H12.5C11.5795 8.8 10.8333 8.08366 10.8333 7.2V1.6Z" fill="#56A033"/>
<path d="M10.8333 12.8C10.8333 11.9163 11.5795 11.2 12.5 11.2H18.3333C19.2538 11.2 20 11.9163 20 12.8V18.4C20 19.2837 19.2538 20 18.3333 20H12.5C11.5795 20 10.8333 19.2837 10.8333 18.4V12.8Z" fill="#56A033"/>
</svg>
