<svg width="28" height="28" viewBox="0 0 28 28" fill="none" xmlns="http://www.w3.org/2000/svg">
<path d="M7.84648 16.6665C5.94236 16.6665 4.11623 17.3817 2.76981 18.6546C1.4234 19.9276 0.666992 21.6541 0.666992 23.4544C0.666992 24.4831 1.09923 25.4697 1.86861 26.1971C2.63799 26.9245 3.68149 27.3332 4.76956 27.3332H23.2311C24.3192 27.3332 25.3627 26.9245 26.132 26.1971C26.9014 25.4697 27.3337 24.4831 27.3337 23.4544C27.3337 21.6541 26.5773 19.9276 25.2308 18.6546C23.8844 17.3817 22.0583 16.6665 20.1542 16.6665H7.84648Z" fill="#56A033"/>
<path fill-rule="evenodd" clip-rule="evenodd" d="M8.66699 5.99984C8.66699 3.05432 11.0548 0.666504 14.0003 0.666504C16.9458 0.666504 19.3337 3.05432 19.3337 5.99984C19.3337 8.94536 16.9458 11.3332 14.0003 11.3332C11.0548 11.3332 8.66699 8.94536 8.66699 5.99984Z" fill="#56A033"/>
</svg>
