<svg width="12" height="20" viewBox="0 0 12 20" fill="none" xmlns="http://www.w3.org/2000/svg">
<path d="M0.322478 18.3137C0.219467 18.4092 0.138937 18.5214 0.085483 18.6441C0.0320293 18.7667 0.00669912 18.8974 0.0109401 19.0286C0.0151811 19.1598 0.0489098 19.289 0.1102 19.4089C0.17149 19.5287 0.259141 19.6367 0.368149 19.7269C0.477158 19.8171 0.605389 19.8876 0.74552 19.9344C0.88565 19.9811 1.03494 20.0033 1.18486 19.9996C1.33478 19.9959 1.48239 19.9664 1.61928 19.9127C1.75616 19.8591 1.87964 19.7823 1.98265 19.6869L11.6879 10.6922C11.8883 10.5067 12 10.261 12 10.0056C12 9.75026 11.8883 9.50458 11.6879 9.31902L1.98265 0.3233C1.88032 0.225796 1.75687 0.14706 1.61948 0.091668C1.4821 0.0362759 1.3335 0.00533128 1.18234 0.000630201C1.03117 -0.00407088 0.880441 0.0175669 0.738908 0.0642849C0.597374 0.111003 0.467857 0.18187 0.357879 0.272771C0.2479 0.363672 0.159653 0.472795 0.098263 0.593801C0.0368731 0.714807 0.00356419 0.845284 0.000270703 0.977653C-0.00302278 1.11002 0.0237645 1.24164 0.0790776 1.36487C0.134391 1.48811 0.217127 1.60049 0.322479 1.69549L9.28785 10.0056L0.322478 18.3137Z" fill="#56A033"/>
</svg>
