<svg width="28" height="26" viewBox="0 0 28 26" fill="none" xmlns="http://www.w3.org/2000/svg">
<path d="M6.00033 5.99984C6.00033 3.05317 8.38699 0.666504 11.3337 0.666504C14.2803 0.666504 16.667 3.05317 16.667 5.99984C16.667 8.9465 14.2803 11.3332 11.3337 11.3332C8.38699 11.3332 6.00033 8.9465 6.00033 5.99984ZM14.0003 19.5998C14.0003 18.3198 14.667 17.1198 15.6003 16.3198V15.9998C15.6003 15.4798 15.6937 14.9865 15.8403 14.5065C14.467 14.1865 12.947 13.9998 11.3337 13.9998C5.44033 13.9998 0.666992 16.3865 0.666992 19.3332V21.9998H14.0003V19.5998ZM27.3337 19.7332V24.3998C27.3337 25.1998 26.5337 25.9998 25.6003 25.9998H18.267C17.467 25.9998 16.667 25.1998 16.667 24.2665V19.5998C16.667 18.7998 17.467 17.9998 18.267 17.9998V15.9998C18.267 14.1332 20.1337 12.6665 22.0003 12.6665C23.867 12.6665 25.7337 14.1332 25.7337 15.9998V17.9998C26.5337 17.9998 27.3337 18.7998 27.3337 19.7332ZM24.0003 15.9998C24.0003 14.9332 23.067 14.2665 22.0003 14.2665C20.9337 14.2665 20.0003 14.9332 20.0003 15.9998V17.9998H24.0003V15.9998Z" fill="#56A033"/>
</svg>
