<svg width="80" height="44" viewBox="0 0 80 44" fill="none" xmlns="http://www.w3.org/2000/svg">
<rect x="0.5" y="0.5" width="79" height="43" rx="21.5" fill="white"/>
<rect x="0.5" y="0.5" width="79" height="43" rx="21.5" stroke="#C4C4C4"/>
<path d="M64 30.75H61C60.8011 30.75 60.6103 30.671 60.4697 30.5303C60.329 30.3897 60.25 30.1989 60.25 30C60.25 29.8011 60.329 29.6103 60.4697 29.4697C60.6103 29.329 60.8011 29.25 61 29.25H64C64.2969 29.2758 64.5924 29.1864 64.8251 29.0002C65.0579 28.814 65.21 28.5454 65.25 28.25V15.78C65.21 15.4847 65.0579 15.216 64.8251 15.0298C64.5924 14.8436 64.2969 14.7542 64 14.78H61C60.8011 14.78 60.6103 14.701 60.4697 14.5603C60.329 14.4197 60.25 14.2289 60.25 14.03C60.25 13.8311 60.329 13.6403 60.4697 13.4997C60.6103 13.359 60.8011 13.28 61 13.28H64C64.3468 13.2653 64.693 13.319 65.019 13.4382C65.3449 13.5575 65.6442 13.7398 65.8996 13.9748C66.155 14.2098 66.3616 14.4928 66.5075 14.8077C66.6535 15.1226 66.7359 15.4632 66.75 15.81V28.22C66.7359 28.5668 66.6535 28.9074 66.5075 29.2223C66.3616 29.5372 66.155 29.8203 65.8996 30.0552C65.6442 30.2902 65.3449 30.4726 65.019 30.5918C64.693 30.711 64.3468 30.7648 64 30.75Z" fill="#C4C4C4"/>
<path d="M56.9998 26.75C56.9013 26.7505 56.8036 26.7312 56.7126 26.6935C56.6216 26.6557 56.5391 26.6001 56.4698 26.53C56.3294 26.3894 56.2505 26.1987 56.2505 26C56.2505 25.8012 56.3294 25.6106 56.4698 25.47L59.9398 22L56.4698 18.53C56.3373 18.3878 56.2652 18.1998 56.2687 18.0055C56.2721 17.8112 56.3508 17.6258 56.4882 17.4884C56.6256 17.351 56.811 17.2723 57.0053 17.2688C57.1996 17.2654 57.3877 17.3375 57.5298 17.47L61.5298 21.47C61.6703 21.6106 61.7492 21.8012 61.7492 22C61.7492 22.1987 61.6703 22.3894 61.5298 22.53L57.5298 26.53C57.4606 26.6001 57.378 26.6557 57.287 26.6935C57.196 26.7312 57.0984 26.7505 56.9998 26.75Z" fill="#C4C4C4"/>
<path d="M61 22.75H50C49.8011 22.75 49.6103 22.671 49.4697 22.5303C49.329 22.3897 49.25 22.1989 49.25 22C49.25 21.8011 49.329 21.6103 49.4697 21.4697C49.6103 21.329 49.8011 21.25 50 21.25H61C61.1989 21.25 61.3897 21.329 61.5303 21.4697C61.671 21.6103 61.75 21.8011 61.75 22C61.75 22.1989 61.671 22.3897 61.5303 22.5303C61.3897 22.671 61.1989 22.75 61 22.75Z" fill="#C4C4C4"/>
<path fill-rule="evenodd" clip-rule="evenodd" d="M22 0C9.8494 0 0 9.8494 0 22C0 34.1506 9.8494 44 22 44C34.1506 44 44 34.1506 44 22C44 9.8494 34.1506 0 22 0ZM14.3 16.5C14.3 15.4888 14.4992 14.4875 14.8861 13.5533C15.2731 12.6191 15.8403 11.7703 16.5553 11.0553C17.2703 10.3403 18.1191 9.77309 19.0533 9.38613C19.9875 8.99917 20.9888 8.8 22 8.8C23.0112 8.8 24.0125 8.99917 24.9467 9.38613C25.8809 9.77309 26.7297 10.3403 27.4447 11.0553C28.1597 11.7703 28.7269 12.6191 29.1139 13.5533C29.5008 14.4875 29.7 15.4888 29.7 16.5C29.7 18.5422 28.8888 20.5007 27.4447 21.9447C26.0007 23.3888 24.0422 24.2 22 24.2C19.9578 24.2 17.9993 23.3888 16.5553 21.9447C15.1112 20.5007 14.3 18.5422 14.3 16.5ZM35.7676 32.9648C34.1202 35.0358 32.0265 36.7081 29.6426 37.857C27.2588 39.0058 24.6463 39.6017 22 39.6C19.3537 39.6017 16.7412 39.0058 14.3574 37.857C11.9735 36.7081 9.87978 35.0358 8.2324 32.9648C11.7986 30.4062 16.665 28.6 22 28.6C27.335 28.6 32.2014 30.4062 35.7676 32.9648Z" fill="#C4C4C4"/>
</svg>
