<svg width="22" height="28" viewBox="0 0 22 28" fill="none" xmlns="http://www.w3.org/2000/svg">
<path fill-rule="evenodd" clip-rule="evenodd" d="M10.9992 0C8.08232 0.00164885 5.28541 1.20408 3.22298 3.34309C1.16055 5.4821 0.00132213 8.3827 0 11.4076C0.205808 13.7302 0.989671 15.9576 2.27485 17.8717C4.50672 21.3658 7.07982 24.6121 9.95339 27.5592C10.2333 27.8419 10.6085 28 10.9991 28C11.3898 28 11.765 27.8419 12.0449 27.5592C14.9185 24.6121 17.4916 21.3658 19.7235 17.8717C21.0087 15.9576 21.7925 13.7302 21.9983 11.4076C21.997 8.38274 20.8378 5.48213 18.7754 3.34311C16.7129 1.2041 13.916 0.00165984 10.9992 0ZM10.9992 6.22221C10.1091 6.22215 9.23909 6.49578 8.49903 7.00851C7.75897 7.52124 7.18215 8.25003 6.8415 9.10274C6.50084 9.95544 6.41167 10.8937 6.58525 11.799C6.75883 12.7043 7.18737 13.5358 7.81667 14.1885C8.44598 14.8412 9.24778 15.2857 10.1207 15.4658C10.9936 15.6459 11.8984 15.5536 12.7207 15.2004C13.543 14.8472 14.2458 14.2491 14.7403 13.4817C15.2348 12.7143 15.4988 11.8121 15.4988 10.8891C15.4982 9.65164 15.024 8.46505 14.1803 7.58999C13.3366 6.71493 12.1924 6.22298 10.9992 6.22221Z" fill="#56A033"/>
</svg>
