<svg width="28" height="28" viewBox="0 0 28 28" fill="none" xmlns="http://www.w3.org/2000/svg">
<path d="M6.23686 20.5275L2.81911 23.9435C2.65972 24.1085 2.57153 24.3296 2.57352 24.559C2.57551 24.7884 2.66754 25.0079 2.82977 25.1701C2.992 25.3323 3.21146 25.4244 3.44088 25.4263C3.6703 25.4283 3.89133 25.3401 4.05636 25.1808L7.47411 21.763C9.70753 23.6765 12.5953 24.6506 15.5314 24.4809C18.4676 24.3112 21.2239 23.0108 23.2219 20.8527C25.22 18.6946 26.3045 15.8464 26.2479 12.9059C26.1913 9.96545 24.998 7.16116 22.9183 5.08153C20.8387 3.00189 18.0344 1.80857 15.0939 1.75197C12.1534 1.69537 9.30528 2.77988 7.14716 4.77794C4.98903 6.776 3.68868 9.53229 3.51895 12.4684C3.34923 15.4046 4.32333 18.2923 6.23686 20.5258V20.5275ZM14.8749 22.75C12.3221 22.75 9.87399 21.7359 8.06895 19.9309C6.26392 18.1259 5.24986 15.6777 5.24986 13.125C5.24986 10.5723 6.26392 8.12414 8.06895 6.3191C9.87399 4.51406 12.3221 3.5 14.8749 3.5C17.4276 3.5 19.8757 4.51406 21.6808 6.3191C23.4858 8.12414 24.4999 10.5723 24.4999 13.125C24.4999 15.6777 23.4858 18.1259 21.6808 19.9309C19.8757 21.7359 17.4276 22.75 14.8749 22.75Z" fill="#56A033"/>
</svg>
