<svg width="44" height="44" viewBox="0 0 44 44" fill="none" xmlns="http://www.w3.org/2000/svg">
<path fill-rule="evenodd" clip-rule="evenodd" d="M22 0C9.8494 0 0 9.8494 0 22C0 34.1506 9.8494 44 22 44C34.1506 44 44 34.1506 44 22C44 9.8494 34.1506 0 22 0ZM14.3 16.5C14.3 15.4888 14.4992 14.4875 14.8861 13.5533C15.2731 12.6191 15.8403 11.7703 16.5553 11.0553C17.2703 10.3403 18.1191 9.77309 19.0533 9.38613C19.9875 8.99917 20.9888 8.8 22 8.8C23.0112 8.8 24.0125 8.99917 24.9467 9.38613C25.8809 9.77309 26.7297 10.3403 27.4447 11.0553C28.1597 11.7703 28.7269 12.6191 29.1139 13.5533C29.5008 14.4875 29.7 15.4888 29.7 16.5C29.7 18.5422 28.8888 20.5007 27.4447 21.9447C26.0007 23.3888 24.0422 24.2 22 24.2C19.9578 24.2 17.9993 23.3888 16.5553 21.9447C15.1112 20.5007 14.3 18.5422 14.3 16.5ZM35.7676 32.9648C34.1202 35.0358 32.0265 36.7081 29.6426 37.857C27.2588 39.0058 24.6463 39.6017 22 39.6C19.3537 39.6017 16.7412 39.0058 14.3574 37.857C11.9735 36.7081 9.87978 35.0358 8.2324 32.9648C11.7986 30.4062 16.665 28.6 22 28.6C27.335 28.6 32.2014 30.4062 35.7676 32.9648Z" fill="#C4C4C4"/>
</svg>
