<svg width="174" height="50" viewBox="0 0 174 50" fill="none" xmlns="http://www.w3.org/2000/svg">
<path d="M0 49.6301V26.6456H4.33694L13.9818 42.8661H11.6838L21.1669 26.6456H25.5038L25.5362 49.6301H20.6166L20.5843 34.2961H21.5229L13.917 47.2003H11.5868L3.8191 34.2961H4.91951V49.6301H0Z" fill="#020202"/>
<path d="M29.9019 49.6301L39.9999 26.6456H45.1783L55.3086 49.6301H49.8065L41.521 29.3381H43.5924L35.2746 49.6301H29.9019ZM34.9509 44.7048L36.3426 40.6661H47.9941L49.4182 44.7048H34.9509Z" fill="#020202"/>
<path d="M59.6076 49.6301V26.6456H75.5961L75.5637 30.9798H63.5886L64.7861 29.7649L64.8184 49.6301H59.6076Z" fill="#020202"/>
<path d="M73.1057 49.6301L83.2037 26.6456H88.3821L98.5124 49.6301H93.0103L84.7248 29.3381H86.7962L78.4783 49.6301H73.1057ZM78.1547 44.7048L79.5464 40.6661H91.1979L92.6219 44.7048H78.1547Z" fill="#020202"/>
<path d="M100.772 47.5943L102.391 43.7854C103.362 44.3765 104.397 44.8362 105.498 45.1645C106.62 45.471 107.709 45.6461 108.767 45.6899C109.845 45.7118 110.816 45.6023 111.68 45.3615C112.564 45.1207 113.265 44.7595 113.783 44.278C114.323 43.7964 114.592 43.1835 114.592 42.4392C114.592 41.5636 114.236 40.9179 113.524 40.5019C112.812 40.0641 111.863 39.8452 110.676 39.8452H105.142V35.8394H110.288C111.345 35.8394 112.165 35.6205 112.748 35.1827C113.352 34.7449 113.654 34.1429 113.654 33.3768C113.654 32.7201 113.438 32.1947 113.006 31.8007C112.575 31.3848 111.982 31.0783 111.226 30.8813C110.493 30.6843 109.662 30.5967 108.734 30.6186C107.806 30.6405 106.846 30.7937 105.854 31.0783C104.861 31.3629 103.912 31.7569 103.006 32.2604L101.42 28.156C102.887 27.3898 104.43 26.8645 106.048 26.5799C107.688 26.2735 109.263 26.1968 110.773 26.3501C112.305 26.4814 113.686 26.8316 114.916 27.4008C116.146 27.948 117.128 28.6704 117.861 29.5679C118.595 30.4654 118.962 31.527 118.962 32.7529C118.962 33.8474 118.681 34.8215 118.12 35.6752C117.559 36.5289 116.772 37.1856 115.758 37.6453C114.765 38.105 113.621 38.3348 112.327 38.3348L112.456 37.1528C113.967 37.1528 115.272 37.4155 116.372 37.9408C117.494 38.4443 118.358 39.1557 118.962 40.0751C119.587 40.9726 119.9 42.0123 119.9 43.1944C119.9 44.2889 119.609 45.274 119.026 46.1496C118.465 47.0033 117.689 47.7256 116.696 48.3167C115.704 48.9077 114.571 49.3455 113.298 49.6301C112.025 49.9146 110.665 50.035 109.22 49.9912C107.796 49.9475 106.361 49.7395 104.915 49.3674C103.47 48.9734 102.089 48.3823 100.772 47.5943Z" fill="#020202"/>
<path d="M125.346 49.6301V26.6456H130.557V41.6183L141.367 26.6456H146.286V49.6301H141.108V34.6902L130.298 49.6301H125.346Z" fill="#020202"/>
<path d="M168.757 26.6456H174V49.6301H168.757V26.6456ZM158.465 49.6301H153.222V26.6456H158.465V49.6301ZM169.145 40.2064H158.076V35.708H169.145V40.2064Z" fill="#020202"/>
<path d="M6.21422 14.9399C5.31878 14.9399 4.48807 14.7922 3.72209 14.4966C2.96691 14.2011 2.30881 13.7852 1.74782 13.2489C1.19761 12.7126 0.76607 12.0833 0.453206 11.3609C0.15113 10.6385 9.25977e-05 9.85049 9.25977e-05 8.99678C9.25977e-05 8.14307 0.15113 7.35503 0.453206 6.63267C0.76607 5.9103 1.203 5.28096 1.764 4.74465C2.32499 4.20835 2.98309 3.79244 3.73828 3.49692C4.49347 3.20141 5.31338 3.05365 6.19803 3.05365C7.09347 3.05365 7.91339 3.20141 8.65779 3.49692C9.41298 3.79244 10.0657 4.20835 10.6159 4.74465C11.1769 5.28096 11.6138 5.9103 11.9267 6.63267C12.2395 7.34409 12.396 8.13213 12.396 8.99678C12.396 9.85049 12.2395 10.644 11.9267 11.3773C11.6138 12.0997 11.1769 12.729 10.6159 13.2653C10.0657 13.7907 9.41298 14.2011 8.65779 14.4966C7.91339 14.7922 7.09887 14.9399 6.21422 14.9399ZM6.19803 12.6743C6.70509 12.6743 7.16899 12.5867 7.58974 12.4116C8.02128 12.2365 8.39887 11.9848 8.72252 11.6564C9.04617 11.3281 9.29431 10.9395 9.46692 10.4908C9.65032 10.042 9.74203 9.54403 9.74203 8.99678C9.74203 8.44953 9.65032 7.95154 9.46692 7.50279C9.29431 7.05405 9.04617 6.6655 8.72252 6.33715C8.40966 6.0088 8.03746 5.75707 7.60592 5.58195C7.17439 5.40683 6.70509 5.31927 6.19803 5.31927C5.69098 5.31927 5.22168 5.40683 4.79015 5.58195C4.3694 5.75707 3.9972 6.0088 3.67355 6.33715C3.34989 6.6655 3.09637 7.05405 2.91296 7.50279C2.74035 7.95154 2.65404 8.44953 2.65404 8.99678C2.65404 9.53309 2.74035 10.0311 2.91296 10.4908C3.09637 10.9395 3.3445 11.3281 3.65736 11.6564C3.98102 11.9848 4.35861 12.2365 4.79015 12.4116C5.22168 12.5867 5.69098 12.6743 6.19803 12.6743Z" fill="#020202"/>
<path d="M22.8305 3.25066H25.4521V14.7429H22.8305V3.25066ZM17.6844 14.7429H15.0628V3.25066H17.6844V14.7429ZM23.0247 10.0311H17.4902V7.78189H23.0247V10.0311Z" fill="#020202"/>
<path d="M28.9718 14.9235C28.7776 14.9235 28.5726 14.9071 28.3568 14.8742C28.1519 14.8414 27.9253 14.7976 27.6772 14.7429L27.839 12.4937C27.99 12.5375 28.1465 12.5594 28.3083 12.5594C28.7506 12.5594 29.0958 12.3788 29.344 12.0176C29.5921 11.6455 29.7701 11.1146 29.878 10.4251C29.9859 9.73557 30.056 8.89828 30.0884 7.91323L30.2502 3.25066H38.9564V14.7429H36.3672V4.81032L36.966 5.41777H31.9656L32.4996 4.77749L32.4025 7.81472C32.3701 8.94206 32.2946 9.94352 32.1759 10.8191C32.0573 11.6947 31.8739 12.439 31.6257 13.0519C31.3776 13.6648 31.0378 14.13 30.6062 14.4474C30.1747 14.7648 29.6299 14.9235 28.9718 14.9235Z" fill="#020202"/>
<path d="M41.1545 14.7429L46.2035 3.25066H48.7927L53.8579 14.7429H51.1068L46.9641 4.5969H47.9997L43.8408 14.7429H41.1545ZM43.679 12.2803L44.3748 10.2609H50.2006L50.9126 12.2803H43.679Z" fill="#020202"/>
<path d="M56.0074 14.7429V3.25066H58.6128V10.737L64.0178 3.25066H66.4775V14.7429H63.8883V7.27295L58.4833 14.7429H56.0074ZM61.2343 2.51188C60.1555 2.51188 59.3626 2.29298 58.8555 1.85518C58.3592 1.41738 58.1057 0.798984 58.0949 0H59.8912C59.902 0.39402 60.0153 0.695007 60.231 0.902962C60.4576 1.09997 60.792 1.19848 61.2343 1.19848C61.6659 1.19848 61.9949 1.09997 62.2215 0.902962C62.448 0.695007 62.5667 0.39402 62.5775 0H64.3738C64.363 0.798984 64.1041 1.41738 63.597 1.85518C63.09 2.29298 62.3024 2.51188 61.2343 2.51188Z" fill="#020202"/>
<path d="M77.7129 3.25066H80.3345V14.7429H77.7129V3.25066ZM72.5668 14.7429H69.9453V3.25066H72.5668V14.7429ZM77.9071 10.0311H72.3727V7.78189H77.9071V10.0311Z" fill="#020202"/>
<path d="M86.9815 3.45588H158.792V14.7429H86.9815V3.45588Z" fill="#B8ECA0"/>
<path d="M162.838 3.45588H173.963V14.7429H162.838V3.45588Z" fill="#B8ECA0"/>
</svg>
