<svg width="29" height="24" viewBox="0 0 29 24" fill="none" xmlns="http://www.w3.org/2000/svg">
<path d="M24.2459 0C25.0276 0 25.7773 0.31607 26.33 0.87868C26.8828 1.44129 27.1933 2.20435 27.1933 3V4.5H18.3512C16.397 4.5 14.5228 5.29018 13.1409 6.6967C11.7591 8.10322 10.9828 10.0109 10.9828 12C10.9828 13.9891 11.7591 15.8968 13.1409 17.3033C14.5228 18.7098 16.397 19.5 18.3512 19.5H27.1933V21C27.1933 21.7956 26.8828 22.5587 26.33 23.1213C25.7773 23.6839 25.0276 24 24.2459 24H3.61436C2.83267 24 2.083 23.6839 1.53026 23.1213C0.977517 22.5587 0.666992 21.7956 0.666992 21V3C0.666992 2.20435 0.977517 1.44129 1.53026 0.87868C2.083 0.31607 2.83267 0 3.61436 0H24.2459ZM25.7196 7.5C26.5013 7.5 27.251 7.81607 27.8037 8.37868C28.3565 8.94129 28.667 9.70435 28.667 10.5V13.5C28.667 14.2956 28.3565 15.0587 27.8037 15.6213C27.251 16.1839 26.5013 16.5 25.7196 16.5H18.3512C17.1787 16.5 16.0542 16.0259 15.225 15.182C14.3959 14.3381 13.9302 13.1935 13.9302 12C13.9302 10.8065 14.3959 9.66193 15.225 8.81802C16.0542 7.97411 17.1787 7.5 18.3512 7.5H25.7196ZM18.3512 10.5C17.9604 10.5 17.5855 10.658 17.3092 10.9393C17.0328 11.2206 16.8775 11.6022 16.8775 12C16.8775 12.3978 17.0328 12.7794 17.3092 13.0607C17.5855 13.342 17.9604 13.5 18.3512 13.5C18.742 13.5 19.1169 13.342 19.3933 13.0607C19.6696 12.7794 19.8249 12.3978 19.8249 12C19.8249 11.6022 19.6696 11.2206 19.3933 10.9393C19.1169 10.658 18.742 10.5 18.3512 10.5Z" fill="#56A033"/>
</svg>
