<svg width="30" height="50" viewBox="0 0 30 50" fill="none" xmlns="http://www.w3.org/2000/svg">
<path d="M29.1938 45.7844C29.4513 46.0229 29.6527 46.3035 29.7863 46.6101C29.9199 46.9168 29.9833 47.2435 29.9726 47.5715C29.962 47.8996 29.8777 48.2226 29.7245 48.5221C29.5713 48.8217 29.3521 49.0919 29.0796 49.3173C28.8071 49.5427 28.4865 49.7189 28.1362 49.8359C27.7859 49.9529 27.4127 50.0083 27.0379 49.999C26.6631 49.9897 26.294 49.9159 25.9518 49.7818C25.6096 49.6477 25.3009 49.4559 25.0434 49.2173L0.780252 26.7305C0.279186 26.2666 0 25.6524 0 25.014C0 24.3756 0.279186 23.7615 0.780252 23.2976L25.0434 0.808249C25.2992 0.56449 25.6078 0.36765 25.9513 0.22917C26.2948 0.0906897 26.6662 0.0133282 27.0442 0.0015755C27.4221 -0.0101772 27.7989 0.0439172 28.1527 0.160712C28.5066 0.277507 28.8304 0.454674 29.1053 0.681928C29.3802 0.909181 29.6009 1.18199 29.7543 1.4845C29.9078 1.78702 29.9911 2.11321 29.9993 2.44413C30.0076 2.77505 29.9406 3.10411 29.8023 3.41219C29.664 3.72026 29.4572 4.00122 29.1938 4.23873L6.78038 25.014L29.1938 45.7844Z" fill="#56A033"/>
</svg>
