<svg width="14" height="13" viewBox="0 0 14 13" fill="none" xmlns="http://www.w3.org/2000/svg">
<path d="M10.585 5.526L6.63498 1.65907C6.45283 1.47444 6.35203 1.22715 6.35431 0.970463C6.35659 0.71378 6.46176 0.468242 6.64717 0.286733C6.83257 0.105224 7.08339 0.00226721 7.34558 3.67168e-05C7.60778 -0.00219378 7.86038 0.0964809 8.04898 0.274808L13.706 5.81284C13.7992 5.90355 13.8731 6.01139 13.9236 6.13017C13.974 6.24895 14 6.37633 14 6.50497C14 6.63362 13.974 6.76099 13.9236 6.87978C13.8731 6.99856 13.7992 7.1064 13.706 7.19711L8.04898 12.7351C7.85953 12.9091 7.60839 13.004 7.34871 12.9999C7.08903 12.9957 6.84117 12.8929 6.65759 12.713C6.47401 12.5332 6.3691 12.2905 6.36507 12.0362C6.36104 11.782 6.45819 11.5362 6.63598 11.3509L10.586 7.48394L0.999998 7.48394C0.734782 7.48394 0.480428 7.3808 0.292893 7.19721C0.105357 7.01362 6.57984e-07 6.76461 6.69333e-07 6.50497C6.80682e-07 6.24533 0.105357 5.99633 0.292893 5.81274C0.480428 5.62915 0.734782 5.526 0.999998 5.526L10.585 5.526Z" fill="#56A033"/>
</svg>
