<svg width="30" height="50" viewBox="0 0 30 50" fill="none" xmlns="http://www.w3.org/2000/svg">
<path d="M0.806194 45.7844C0.548668 46.0229 0.347342 46.3035 0.213707 46.6101C0.0800732 46.9168 0.0167478 47.2435 0.0273503 47.5715C0.0379528 47.8996 0.122275 48.2226 0.2755 48.5221C0.428725 48.8217 0.647853 49.0919 0.920373 49.3173C1.19289 49.5427 1.51347 49.7189 1.8638 49.8359C2.21413 49.9529 2.58734 50.0083 2.96214 49.999C3.33694 49.9897 3.70598 49.9159 4.0482 49.7818C4.39041 49.6477 4.69909 49.4559 4.95662 49.2173L29.2197 26.7305C29.7208 26.2666 30 25.6524 30 25.014C30 24.3756 29.7208 23.7615 29.2197 23.2976L4.95662 0.808249C4.7008 0.56449 4.39218 0.36765 4.04871 0.22917C3.70524 0.0906897 3.33376 0.0133282 2.95584 0.0015755C2.57792 -0.0101772 2.2011 0.0439172 1.84727 0.160712C1.49344 0.277507 1.16964 0.454674 0.894696 0.681928C0.619751 0.909181 0.399132 1.18199 0.245658 1.4845C0.0921827 1.78702 0.00891047 2.11321 0.000676758 2.44413C-0.00755695 2.77505 0.0594113 3.10411 0.197694 3.41219C0.335977 3.72026 0.542817 4.00122 0.806198 4.23873L23.2196 25.014L0.806194 45.7844Z" fill="#56A033"/>
</svg>
