<svg width="34" height="34" viewBox="0 0 34 34" fill="none" xmlns="http://www.w3.org/2000/svg">
<path d="M0 1.21403C0 0.892046 0.127909 0.583253 0.355588 0.355579C0.583266 0.127906 0.892065 0 1.21405 0H2.27756C4.04279 0 5.05774 1.14847 5.64534 2.29451C6.04598 3.07877 6.33492 4.03542 6.5753 4.86581H31.5726C31.9478 4.86593 32.3179 4.95298 32.6537 5.12014C32.9896 5.2873 33.2822 5.53002 33.5085 5.82925C33.7348 6.12849 33.8887 6.47609 33.9581 6.8448C34.0275 7.2135 34.0105 7.59326 33.9085 7.95429L30.276 20.7623C29.9871 21.7784 29.3746 22.6726 28.5316 23.3093C27.6885 23.946 26.6608 24.2904 25.6043 24.2902H13.272C12.2067 24.2906 11.1709 23.9407 10.3241 23.2944C9.47728 22.6481 8.86647 21.7413 8.58577 20.7137L7.02693 14.9956L7.00265 14.9179L4.5017 6.42462L4.25889 5.60637C4.01608 4.76626 3.80241 4.02328 3.4819 3.39927C3.09583 2.64658 2.74133 2.42805 2.27756 2.42805H1.21405C0.892065 2.42805 0.583266 2.30014 0.355588 2.07247C0.127909 1.8448 0 1.53601 0 1.21403ZM9.34334 14.2624L10.9289 20.08C11.0695 20.5936 11.375 21.0467 11.7984 21.3696C12.2217 21.6925 12.7395 21.8673 13.272 21.867H25.6068C26.1347 21.8665 26.6482 21.6939 27.0692 21.3754C27.4903 21.0568 27.796 20.6097 27.9402 20.1018L31.5726 7.29387H7.29159L9.34334 14.2624ZM17.004 30.3579C17.004 31.3239 16.6203 32.2502 15.9372 32.9333C15.2542 33.6163 14.3278 34 13.3618 34C12.3959 34 11.4695 33.6163 10.7865 32.9333C10.1034 32.2502 9.7197 31.3239 9.7197 30.3579C9.7197 29.392 10.1034 28.4656 10.7865 27.7826C11.4695 27.0996 12.3959 26.7158 13.3618 26.7158C14.3278 26.7158 15.2542 27.0996 15.9372 27.7826C16.6203 28.4656 17.004 29.392 17.004 30.3579ZM14.5759 30.3579C14.5759 30.0359 14.448 29.7271 14.2203 29.4995C13.9926 29.2718 13.6838 29.1439 13.3618 29.1439C13.0399 29.1439 12.7311 29.2718 12.5034 29.4995C12.2757 29.7271 12.1478 30.0359 12.1478 30.3579C12.1478 30.6799 12.2757 30.9887 12.5034 31.2164C12.7311 31.444 13.0399 31.5719 13.3618 31.5719C13.6838 31.5719 13.9926 31.444 14.2203 31.2164C14.448 30.9887 14.5759 30.6799 14.5759 30.3579ZM29.1445 30.3579C29.1445 31.3239 28.7608 32.2502 28.0778 32.9333C27.3947 33.6163 26.4683 34 25.5024 34C24.5364 34 23.61 33.6163 22.927 32.9333C22.2439 32.2502 21.8602 31.3239 21.8602 30.3579C21.8602 29.392 22.2439 28.4656 22.927 27.7826C23.61 27.0996 24.5364 26.7158 25.5024 26.7158C26.4683 26.7158 27.3947 27.0996 28.0778 27.7826C28.7608 28.4656 29.1445 29.392 29.1445 30.3579ZM26.7164 30.3579C26.7164 30.0359 26.5885 29.7271 26.3608 29.4995C26.1332 29.2718 25.8244 29.1439 25.5024 29.1439C25.1804 29.1439 24.8716 29.2718 24.6439 29.4995C24.4162 29.7271 24.2883 30.0359 24.2883 30.3579C24.2883 30.6799 24.4162 30.9887 24.6439 31.2164C24.8716 31.444 25.1804 31.5719 25.5024 31.5719C25.8244 31.5719 26.1332 31.444 26.3608 31.2164C26.5885 30.9887 26.7164 30.6799 26.7164 30.3579Z" fill="#020202"/>
</svg>
